<?xml version="1.0" encoding="UTF-8"?>
<svg width="20px" height="21px" viewBox="0 0 20 21" version="1.1" xmlns="http://www.w3.org/2000/svg" xmlns:xlink="http://www.w3.org/1999/xlink">
    <!-- Generator: Sketch 60.1 (88133) - https://sketch.com -->
    <title>icons8-search</title>
    <desc>Created with Sketch.</desc>
    <defs>
        <rect id="path-1" x="0" y="0" width="317" height="50" rx="4"></rect>
        <filter x="-5.0%" y="-28.0%" width="110.1%" height="164.0%" filterUnits="objectBoundingBox" id="filter-2">
            <feOffset dx="0" dy="2" in="SourceAlpha" result="shadowOffsetOuter1"></feOffset>
            <feGaussianBlur stdDeviation="5" in="shadowOffsetOuter1" result="shadowBlurOuter1"></feGaussianBlur>
            <feColorMatrix values="0 0 0 0 0   0 0 0 0 0   0 0 0 0 0  0 0 0 0.0986942745 0" type="matrix" in="shadowBlurOuter1"></feColorMatrix>
        </filter>
    </defs>
    <g id="Team-Member-Dashboard" stroke="none" stroke-width="1" fill="none" fill-rule="evenodd">
        <g id="All-Content" transform="translate(-552.000000, -152.000000)">
            <g id="Dashboard-Elements"></g>
            <g id="Filters" transform="translate(272.000000, 136.000000)">
                <g id="Group-3">
                    <g id="Background">
                        <use fill="black" fill-opacity="1" filter="url(#filter-2)" xlink:href="#path-1"></use>
                        <use fill="#FFFFFF" fill-rule="evenodd" xlink:href="#path-1"></use>
                    </g>
                    <g id="icons8-search" transform="translate(290.000000, 26.500000) scale(-1, 1) translate(-290.000000, -26.500000) translate(280.000000, 16.000000)" fill="#C7CDD9" fill-rule="nonzero">
                        <path d="M7.97653959,0 C3.56671578,0 0,3.59386216 0,8.03724928 C0,12.4806369 3.56671578,16.0744986 7.97653959,16.0744986 C9.5509532,16.0744986 11.0080648,15.6091064 12.2434018,14.8186784 L18.0058651,20.625 L20,18.6156877 L14.3108504,12.8980122 C15.3335779,11.5461587 15.9530792,9.87111602 15.9530792,8.03724928 C15.9530792,3.59386216 12.3863639,0 7.97653959,0 Z M7.97653959,1.89111748 C11.3544723,1.89111748 14.0762463,4.63360706 14.0762463,8.03724928 C14.0762463,11.4408915 11.3544723,14.1833811 7.97653959,14.1833811 C4.59860692,14.1833811 1.87683284,11.4408915 1.87683284,8.03724928 C1.87683284,4.63360706 4.59860692,1.89111748 7.97653959,1.89111748 Z" id="Shape"></path>
                    </g>
                </g>
            </g>
        </g>
    </g>
</svg>