<?xml version="1.0" encoding="UTF-8"?>
<svg width="20px" height="20px" viewBox="0 0 20 20" version="1.1" xmlns="http://www.w3.org/2000/svg" xmlns:xlink="http://www.w3.org/1999/xlink">
    <!-- Generator: Sketch 60.1 (88133) - https://sketch.com -->
    <title>calendar</title>
    <desc>Created with Sketch.</desc>
    <defs>
        <rect id="path-1" x="0" y="0" width="316" height="200" rx="4"></rect>
        <filter x="-5.1%" y="-7.0%" width="110.1%" height="116.0%" filterUnits="objectBoundingBox" id="filter-2">
            <feOffset dx="0" dy="2" in="SourceAlpha" result="shadowOffsetOuter1"></feOffset>
            <feGaussianBlur stdDeviation="5" in="shadowOffsetOuter1" result="shadowBlurOuter1"></feGaussianBlur>
            <feColorMatrix values="0 0 0 0 0   0 0 0 0 0   0 0 0 0 0  0 0 0 0.0986942745 0" type="matrix" in="shadowBlurOuter1"></feColorMatrix>
        </filter>
    </defs>
    <g id="Team-Member-Dashboard" stroke="none" stroke-width="1" fill="none" fill-rule="evenodd">
        <g id="Add-Content" transform="translate(-534.000000, -600.000000)">
            <g id="Dashboard-Elements"></g>
            <g id="Dates" transform="translate(272.000000, 542.000000)">
                <g id="Background">
                    <use fill="black" fill-opacity="1" filter="url(#filter-2)" xlink:href="#path-1"></use>
                    <use fill="#FFFFFF" fill-rule="evenodd" xlink:href="#path-1"></use>
                </g>
                <g id="Content-Tactic" transform="translate(19.000000, 24.000000)">
                    <rect id="Background" stroke="#E4E9F2" fill="#F7F9FC" x="0.5" y="20.5" width="277" height="47" rx="4"></rect>
                    <g id="calendar" transform="translate(243.000000, 34.000000)" fill="#C7CDD9" fill-rule="nonzero">
                        <path d="M17.65625,1.5625 L16.71875,1.5625 L16.71875,0 L15.15625,0 L15.15625,1.5625 L4.84375,1.5625 L4.84375,0 L3.28125,0 L3.28125,1.5625 L2.34375,1.5625 C1.05140625,1.5625 0,2.61390625 0,3.90625 L0,17.65625 C0,18.9485938 1.05140625,20 2.34375,20 L17.65625,20 C18.9485938,20 20,18.9485938 20,17.65625 L20,3.90625 C20,2.61390625 18.9485938,1.5625 17.65625,1.5625 Z M18.4375,17.65625 C18.4375,18.0870313 18.0870312,18.4375 17.65625,18.4375 L2.34375,18.4375 C1.91296875,18.4375 1.5625,18.0870313 1.5625,17.65625 L1.5625,7.34375 L18.4375,7.34375 L18.4375,17.65625 Z M18.4375,5.78125 L1.5625,5.78125 L1.5625,3.90625 C1.5625,3.47546875 1.91296875,3.125 2.34375,3.125 L3.28125,3.125 L3.28125,4.6875 L4.84375,4.6875 L4.84375,3.125 L15.15625,3.125 L15.15625,4.6875 L16.71875,4.6875 L16.71875,3.125 L17.65625,3.125 C18.0870312,3.125 18.4375,3.47546875 18.4375,3.90625 L18.4375,5.78125 Z" id="Shape"></path>
                        <rect id="Rectangle" x="3.07692308" y="9.23076923" width="1.53846154" height="1.53846154"></rect>
                        <rect id="Rectangle" x="6.15384615" y="9.23076923" width="1.53846154" height="1.53846154"></rect>
                        <rect id="Rectangle" x="9.23076923" y="9.23076923" width="1.53846154" height="1.53846154"></rect>
                        <rect id="Rectangle" x="12.3076923" y="9.23076923" width="1.53846154" height="1.53846154"></rect>
                        <rect id="Rectangle" x="15.3846154" y="9.23076923" width="1.53846154" height="1.53846154"></rect>
                        <rect id="Rectangle" x="3.07692308" y="12.3076923" width="1.53846154" height="1.53846154"></rect>
                        <rect id="Rectangle" x="6.15384615" y="12.3076923" width="1.53846154" height="1.53846154"></rect>
                        <rect id="Rectangle" x="9.23076923" y="12.3076923" width="1.53846154" height="1.53846154"></rect>
                        <rect id="Rectangle" x="12.3076923" y="12.3076923" width="1.53846154" height="1.53846154"></rect>
                        <rect id="Rectangle" x="3.07692308" y="15.3846154" width="1.53846154" height="1.53846154"></rect>
                        <rect id="Rectangle" x="6.15384615" y="15.3846154" width="1.53846154" height="1.53846154"></rect>
                        <rect id="Rectangle" x="9.23076923" y="15.3846154" width="1.53846154" height="1.53846154"></rect>
                        <rect id="Rectangle" x="12.3076923" y="15.3846154" width="1.53846154" height="1.53846154"></rect>
                        <rect id="Rectangle" x="15.3846154" y="12.3076923" width="1.53846154" height="1.53846154"></rect>
                    </g>
                </g>
            </g>
        </g>
    </g>
</svg>