<?xml version="1.0" encoding="UTF-8"?>
<svg width="16px" height="14px" viewBox="0 0 16 14" version="1.1" xmlns="http://www.w3.org/2000/svg" xmlns:xlink="http://www.w3.org/1999/xlink">
    <!-- Generator: Sketch 60.1 (88133) - https://sketch.com -->
    <title>Icon: Left</title>
    <desc>Created with Sketch.</desc>
    <defs>
        <filter x="-2.5%" y="-46.1%" width="104.9%" height="192.2%" filterUnits="objectBoundingBox" id="filter-1">
            <feOffset dx="0" dy="2" in="SourceAlpha" result="shadowOffsetOuter1"></feOffset>
            <feGaussianBlur stdDeviation="6.5" in="shadowOffsetOuter1" result="shadowBlurOuter1"></feGaussianBlur>
            <feColorMatrix values="0 0 0 0 0   0 0 0 0 0   0 0 0 0 0  0 0 0 0.0681545017 0" type="matrix" in="shadowBlurOuter1" result="shadowMatrixOuter1"></feColorMatrix>
            <feMerge>
                <feMergeNode in="shadowMatrixOuter1"></feMergeNode>
                <feMergeNode in="SourceGraphic"></feMergeNode>
            </feMerge>
        </filter>
        <rect id="path-2" x="0" y="0" width="1200" height="64"></rect>
        <path d="M15,6 L3.135,6 L6.768,1.64 C7.122,1.216 7.064,0.585 6.64,0.232 C6.215,-0.122 5.585,-0.064 5.232,0.36 L0.232,6.36 C0.193,6.407 0.173,6.462 0.144,6.514 C0.12,6.556 0.091,6.592 0.073,6.638 C0.028,6.753 0.001,6.874 0.001,6.996 C0.001,6.997 0,6.999 0,7 C0,7.001 0.001,7.003 0.001,7.004 C0.001,7.126 0.028,7.247 0.073,7.362 C0.091,7.408 0.12,7.444 0.144,7.486 C0.173,7.538 0.193,7.593 0.232,7.64 L5.232,13.64 C5.43,13.877 5.714,14 6,14 C6.226,14 6.453,13.924 6.64,13.768 C7.064,13.415 7.122,12.784 6.768,12.36 L3.135,8 L15,8 C15.552,8 16,7.552 16,7 C16,6.448 15.552,6 15,6" id="path-4"></path>
    </defs>
    <g id="Team-Member-Dashboard" stroke="none" stroke-width="1" fill="none" fill-rule="evenodd">
        <g id="All-Content" transform="translate(-264.000000, -25.000000)">
            <g id="Dashboard-Elements">
                <g id="BG" filter="url(#filter-1)" transform="translate(240.000000, 0.000000)">
                    <mask id="mask-3" fill="white">
                        <use xlink:href="#path-2"></use>
                    </mask>
                    <use fill="#D8D8D8" fill-rule="nonzero" xlink:href="#path-2"></use>
                    <g id="Color/White-1" mask="url(#mask-3)" fill="#FFFFFF" fill-rule="nonzero">
                        <rect id="Rectangle" x="0" y="0" width="1200" height="64"></rect>
                    </g>
                </g>
                <g id="Icon:-Left" transform="translate(264.000000, 25.000000)">
                    <mask id="mask-5" fill="white">
                        <use xlink:href="#path-4"></use>
                    </mask>
                    <use id="🎨-Icon-color" fill="#222B45" xlink:href="#path-4"></use>
                </g>
            </g>
        </g>
    </g>
</svg>