<?xml version="1.0" encoding="UTF-8"?>
<svg width="24px" height="20px" viewBox="0 0 24 20" version="1.1" xmlns="http://www.w3.org/2000/svg" xmlns:xlink="http://www.w3.org/1999/xlink">
    <defs>
        <rect id="path-1" x="0" y="0" width="240" height="1024"></rect>
    </defs>
    <g id="Team-Member-Dashboard" stroke="none" stroke-width="1" fill="none" fill-rule="evenodd">
        <g id="All-Content" transform="translate(-14.000000, -78.000000)">
            <g id="Dashboard-Elements">
                <g id="BG">
                    <mask id="mask-2" fill="white">
                        <use xlink:href="#path-1"></use>
                    </mask>
                    <use fill="#D8D8D8" fill-rule="nonzero" xlink:href="#path-1"></use>
                    <g id="Color/White-1" mask="url(#mask-2)" fill="#FFFFFF" fill-rule="nonzero">
                        <rect id="Rectangle" x="0" y="0" width="240" height="1024"></rect>
                    </g>
                </g>
                <g id="13)-Overflow-Menu/1)-★-+-Text/5)-Active-Middle-┼" transform="translate(0.000000, 64.000000)">
                    <g id="🎨-Background" fill="#222B45">
                        <rect id="🎨-Color" x="0" y="0" width="240" height="48"></rect>
                    </g>
                    <g id="list-solid" transform="translate(14.000000, 14.000000)" fill="#FFFFFF" fill-rule="nonzero">
                        <path d="M3.75,15.1048951 L0.75,15.1048951 C0.335786438,15.1048951 0,15.4430297 0,15.8601399 L0,18.8811189 C0,19.298229 0.335786438,19.6363636 0.75,19.6363636 L3.75,19.6363636 C4.16421356,19.6363636 4.5,19.298229 4.5,18.8811189 L4.5,15.8601399 C4.5,15.4430297 4.16421356,15.1048951 3.75,15.1048951 Z M3.75,0 L0.75,0 C0.335786438,0 0,0.338134595 0,0.755244755 L0,3.77622378 C0,4.19333394 0.335786438,4.53146853 0.75,4.53146853 L3.75,4.53146853 C4.16421356,4.53146853 4.5,4.19333394 4.5,3.77622378 L4.5,0.755244755 C4.5,0.338134595 4.16421356,0 3.75,0 Z M3.75,7.55244755 L0.75,7.55244755 C0.335786438,7.55244755 0,7.89058215 0,8.30769231 L0,11.3286713 C0,11.7457815 0.335786438,12.0839161 0.75,12.0839161 L3.75,12.0839161 C4.16421356,12.0839161 4.5,11.7457815 4.5,11.3286713 L4.5,8.30769231 C4.5,7.89058215 4.16421356,7.55244755 3.75,7.55244755 Z M23.25,15.8601399 L8.25,15.8601399 C7.83578644,15.8601399 7.5,16.1982745 7.5,16.6153846 L7.5,18.1258741 C7.5,18.5429843 7.83578644,18.8811189 8.25,18.8811189 L23.25,18.8811189 C23.6642136,18.8811189 24,18.5429843 24,18.1258741 L24,16.6153846 C24,16.1982745 23.6642136,15.8601399 23.25,15.8601399 Z M23.25,0.755244755 L8.25,0.755244755 C7.83578644,0.755244755 7.5,1.09337935 7.5,1.51048951 L7.5,3.02097902 C7.5,3.43808918 7.83578644,3.77622378 8.25,3.77622378 L23.25,3.77622378 C23.6642136,3.77622378 24,3.43808918 24,3.02097902 L24,1.51048951 C24,1.09337935 23.6642136,0.755244755 23.25,0.755244755 Z M23.25,8.30769231 L8.25,8.30769231 C7.83578644,8.30769231 7.5,8.6458269 7.5,9.06293706 L7.5,10.5734266 C7.5,10.9905367 7.83578644,11.3286713 8.25,11.3286713 L23.25,11.3286713 C23.6642136,11.3286713 24,10.9905367 24,10.5734266 L24,9.06293706 C24,8.6458269 23.6642136,8.30769231 23.25,8.30769231 Z" id="Shape"></path>
                    </g>
                </g>
            </g>
        </g>
    </g>
</svg>