<?xml version="1.0" encoding="UTF-8"?>
<svg width="189px" height="24px" viewBox="0 0 189 24" version="1.1" xmlns="http://www.w3.org/2000/svg" xmlns:xlink="http://www.w3.org/1999/xlink">
    <!-- Generator: Sketch 60.1 (88133) - https://sketch.com -->
    <title>Logo</title>
    <desc>Created with Sketch.</desc>
    <g id="Authentication" stroke="none" stroke-width="1" fill="none" fill-rule="evenodd">
        <g id="Sign-In" transform="translate(-626.000000, -299.000000)">
            <g id="Logo" transform="translate(626.000000, 299.000000)">
                <polygon id="Path" fill="#595C81" points="16 3 13.25 1.49700599 10.5 0 7.75 1.49700599 5 3 5 6 5 9 7.75 7.50299401 10.5 6 13.25 4.50299401 16 3"></polygon>
                <polygon id="Path" fill="#545673" points="5 3 5 6 5 9 6 8.37125749 5 3"></polygon>
                <polygon id="Path" fill="#7E7BA5" points="0 12 2.5 13.497006 5 15 5 18 5 21 2.5 19.497006 0 18 0 15 0 12"></polygon>
                <polygon id="Path" fill="#5C699D" points="5 15 5 12.0014963 5 8.99700748 5 5.99850374 5 3 2.5 4.50224439 0 5.99850374 0 8.99700748 0 12.0014963 2.5 13.4977556 5 15"></polygon>
                <polygon id="Path" fill="#55B1E4" points="16 21 16 18.0014963 16 15.0029925 16 12.0044888 16 9 18.5 10.5022444 21 12.0044888 21 15.0029925 21 18.0014963 18.5 19.4977556 16 21"></polygon>
                <polygon id="Path" fill="#76BBE8" points="11 24 11 21 11 18 13.5 16.497006 16 15 16 18 16 21 13.5 22.497006 11 24"></polygon>
                <polygon id="Path" fill="#5A9BC0" points="15.5 8.99601064 18.25 10.4980053 21 12 21 8.99601064 21 5.99800532 18.25 4.50199468 15.5 3 12.75 4.50199468 10 5.99800532 12.75 7.5 15.5 8.99601064"></polygon>
                <polygon id="Path" fill="#5787A1" points="16 3 13.5 4.65676568 11 6.30693069 12.0483871 7 16 3"></polygon>
                <polygon id="Path" fill="#57A5D1" points="21 12 18.5 10.5 16 9 16 10.2609562 21 12"></polygon>
                <polygon id="Path" fill="#72AED4" points="16 21 16 18 16 15 15 15.6287425 16 21"></polygon>
                <polygon id="Path" fill="#586289" points="0 12 2.5 13.497006 5 15 5 13.7365269 0 12"></polygon>
                <path d="M187.081689,15.936567 C187.09208,16.6124947 186.751067,17.243225 186.186059,17.5931022 C185.538254,18.016277 184.780727,18.2293314 184.012663,18.2043697 C183.037129,18.2163092 182.073598,17.9833472 181.206356,17.5258627 C180.424712,17.123898 179.738046,16.5523405 179.194173,15.8509896 L178,17.1835529 C178.615501,18.0454836 179.438245,18.7298394 180.388347,19.1701725 C181.457882,19.7173441 182.637899,20 183.833537,19.9953837 C185.162293,20.0489676 186.468854,19.6347454 187.535475,18.82175 C188.483276,18.1102968 189.029936,16.9681683 188.998338,15.7654121 C189.022029,15.0221613 188.791881,14.2937057 188.347513,13.7054404 C187.922193,13.1544758 187.358836,12.7319581 186.717466,12.4829053 C186.068632,12.2261729 185.36407,11.9837034 184.603779,11.7554969 C183.843489,11.5272903 183.138926,11.3235345 182.490092,11.1442293 C181.894725,11.0065257 181.33748,10.7327791 180.860045,10.3434688 C180.384443,9.95460337 180.142278,9.33930924 180.221682,8.72150809 C180.301086,8.10370694 180.690479,7.57348615 181.248152,7.323807 C181.955142,6.96612344 182.734482,6.78393727 183.523052,6.79200422 C185.016642,6.72397654 186.471856,7.28761552 187.547417,8.35073652 L188.74159,7.12820138 C187.670815,5.71413574 185.941254,5.00710292 183.552907,5.00710292 C182.190184,4.94020768 180.845452,5.34739143 179.737522,6.16239862 C178.828329,6.81008155 178.284627,7.87084394 178.280631,9.00479282 C178.262257,9.66766396 178.432351,10.3217281 178.770242,10.8874969 C179.079486,11.3999976 179.513659,11.8213101 180.030095,12.1100321 C180.575609,12.4071501 181.147385,12.650707 181.737763,12.8374405 C182.362714,13.0371212 182.985674,13.2184639 183.606644,13.3814686 C184.227615,13.5444733 184.796837,13.7176658 185.314312,13.901046 C185.786128,14.0621312 186.216645,14.3295007 186.574165,14.6834685 C186.894718,15.0046608 187.071824,15.4468856 187.063777,15.9060037 L187.081689,15.936567 Z" id="Path" fill="#363638"></path>
                <path d="M169.213517,6.82404135 C170.10951,6.74669012 171.007913,6.94050491 171.799441,7.38190967 C172.320529,7.7949662 172.60335,8.45360608 172.550389,9.13073282 C172.575672,9.8057294 172.264752,10.4469888 171.726769,10.8294105 C171.071753,11.2732449 170.298428,11.4925368 169.516318,11.4562288 L165.41033,11.4562288 L165.41033,6.82404135 L169.213517,6.82404135 Z M169.455758,13.2175884 C171.849908,13.2175884 173.046983,14.0073795 173.046983,15.5869617 C173.100426,16.3589505 172.748853,17.1010926 172.126467,17.5300985 C171.242232,18.0108779 170.246315,18.2278895 169.249853,18.1569168 L165.41033,18.1569168 L165.41033,13.2175884 L169.455758,13.2175884 Z M163.539017,19.9872264 L169.274077,19.9872264 C170.744449,20.0742941 172.207363,19.7148167 173.483018,18.9529761 C174.505779,18.2292673 175.08001,16.9976065 174.990969,15.7185935 C175.029181,14.8722721 174.79018,14.0373892 174.312694,13.3492202 C173.850338,12.729494 173.180607,12.3113423 172.435324,12.1770699 C173.762751,11.6210508 174.588713,10.2385018 174.476206,8.76091 C174.527347,7.71099509 174.096265,6.69778456 173.313449,6.02798207 C172.538277,5.37191221 171.228156,5.04387728 169.383085,5.04387728 L163.545073,5.04387728 L163.545073,19.9872264 L163.539017,19.9872264 Z M154.03105,7.7078552 L156.877384,14.4962978 L151.202885,14.4962978 L154.03105,7.7078552 Z M147,19.9872264 L148.919761,19.9872264 L150.506441,16.2263164 L157.58594,16.2263164 L159.196844,19.9872264 L161.158997,19.9872264 L154.82439,5 L153.340663,5 L147,19.9872264 Z" id="Shape" fill="#363638"></path>
                <polygon id="Path" fill="#363638" points="135 20 146 20 146 18.1761006 136.977958 18.1761006 136.977958 5 135 5 135 20"></polygon>
                <polygon id="Path" fill="#363638" points="121 6.82389937 126.046216 6.82389937 126.046216 20 127.9355 20 127.9355 6.82389937 133 6.82389937 133 5 121 5 121 6.82389937"></polygon>
                <path d="M117.976155,5 L116.128167,5 L116.128167,13.257057 C116.197627,14.5429476 115.839692,15.8144692 115.114754,16.8570841 C114.386125,17.753885 113.294862,18.2400402 112.169896,18.1690111 C111.005725,18.2021454 109.882225,17.7212225 109.076006,16.8446488 C108.211886,15.8329753 107.769945,14.5038277 107.847988,13.1513567 L107.847988,5 L106,5 L106,13.4311516 C106,15.503706 106.596125,17.1202985 107.788376,18.280929 C108.984803,19.4324396 110.566516,20.0485831 112.193741,19.9970041 C113.710408,20.0283443 115.179964,19.4468734 116.295082,18.374194 C117.431694,17.2923205 118,15.6860908 118,13.5555048 L118,5 L117.976155,5 Z" id="Path" fill="#363638"></path>
                <path d="M101.905867,16.2314604 C100.805155,17.5215015 99.1980091,18.2421147 97.5233255,18.1965075 C96.0209996,18.2888916 94.5518893,17.7195253 93.4876612,16.6324512 C92.4234331,15.5453771 91.8660326,14.0447291 91.9564752,12.5101525 C91.8886389,10.9985586 92.4021278,9.51978703 93.387264,8.38969436 C94.4102055,7.31644238 95.8364678,6.74577504 97.300892,6.82379747 C98.9019499,6.79782934 100.442316,7.4489817 101.557188,8.62304371 L102.759531,7.43173391 C102.173667,6.66837412 101.408569,6.06850209 100.535196,5.68775463 C99.5007722,5.21852095 98.3784501,4.9858846 97.2467865,5.00612892 C95.2762837,4.92227519 93.3645249,5.70205415 91.9925455,7.14925839 C90.6681237,8.58867573 89.9549422,10.5048292 90.0086788,12.4794486 C89.9112357,14.5079716 90.6377371,16.4876384 92.0165924,17.9508766 C93.4696317,19.360353 95.4261,20.0975658 97.427138,19.9896129 C98.5460931,19.9989931 99.6537057,19.7601441 100.673465,19.2895649 C101.594543,18.8959644 102.397232,18.2603675 103,17.4473333 L101.935926,16.2191788 L101.905867,16.2314604 Z" id="Path" fill="#363638"></path>
                <polygon id="Path" fill="#363638" points="79 20 90 20 90 18.1761006 80.9791062 18.1761006 80.9791062 5 79 5 79 20"></polygon>
                <polygon id="Path" fill="#4C5A99" points="66.8054747 7 73.2993593 7 75 7 75 5 65 5 65 7 66.8054747 7"></polygon>
                <polygon id="Path" fill="#5191CB" points="66.7221494 13 72.91481 13 74 13 74 11 72.91481 11 66.7221494 11 65 11 65 13 66.7221494 13"></polygon>
                <polygon id="Path" fill="#2071B7" points="65 20 76 20 76 18 73.9725243 18 66.9519176 18 65 18 65 20"></polygon>
                <polygon id="Path" fill="#363638" points="61.8314815 5 59.5805556 5 55.5180556 10.8050314 51.4375 5 49.2287037 5 54.374537 12.3710692 49 20 51.2328704 20 55.5 13.9371069 59.7611111 20 62 20 56.649537 12.3710692 61.8314815 5"></polygon>
                <polygon id="Path" fill="#363638" points="44 20 46 20 46 5 44 5 44 20"></polygon>
                <path d="M35.9049724,6.78691275 C38.6106303,6.78691275 39.9634592,7.74328859 39.9634592,9.65604027 C39.9976746,10.5102761 39.6088589,11.3266632 38.9236295,11.8393456 C37.985291,12.4333589 36.8808644,12.7112305 35.7726304,12.6321309 L31.9536195,12.6321309 L31.9536195,6.78691275 L35.9049724,6.78691275 Z M31.9536195,20 L31.9536195,14.4693792 L35.8167444,14.4693792 C37.9510211,14.4693792 39.5139167,14.0163591 40.5054311,13.1103188 C41.4801357,12.2526219 42.0265771,11.0095514 41.9990047,9.71266779 C41.9990047,6.57088926 39.9445532,5 35.8356504,5 L30,5 L30,20 L31.9536195,20 Z" id="Shape" fill="#363638"></path>
            </g>
        </g>
    </g>
</svg>