<?xml version="1.0" encoding="UTF-8"?>
<svg width="20px" height="20px" viewBox="0 0 20 20" version="1.1" xmlns="http://www.w3.org/2000/svg" xmlns:xlink="http://www.w3.org/1999/xlink">
    <!-- Generator: Sketch 60.1 (88133) - https://sketch.com -->
    <title>Path</title>
    <desc>Created with Sketch.</desc>
    <g id="Team-Member-Dashboard" stroke="none" stroke-width="1" fill="none" fill-rule="evenodd">
        <g id="All-Content" transform="translate(-1369.000000, -106.000000)">
            <g id="Dashboard-Elements"></g>
            <g id="Add-Content-Button" transform="translate(1246.000000, 96.000000)">
                <g id="Setup/Button-Shape/-Background" transform="translate(0.000000, -0.000000)" fill="#3366FF">
                    <path d="M5.1277704,-2.07168062e-16 L149.87223,2.07168062e-16 C151.655267,-1.2037061e-16 152.30184,0.185651222 152.953691,0.534265408 C153.605543,0.882879593 154.11712,1.39445674 154.465735,2.04630859 C154.814349,2.69816044 155,3.34473292 155,5.1277704 L155,34.8722296 C155,36.6552671 154.814349,37.3018396 154.465735,37.9536914 C154.11712,38.6055433 153.605543,39.1171204 152.953691,39.4657346 C152.30184,39.8143488 151.655267,40 149.87223,40 L5.1277704,40 C3.34473292,40 2.69816044,39.8143488 2.04630859,39.4657346 C1.39445674,39.1171204 0.882879593,38.6055433 0.534265408,37.9536914 C0.185651222,37.3018396 8.02470732e-17,36.6552671 -1.38112041e-16,34.8722296 L1.38112041e-16,5.1277704 C-8.02470732e-17,3.34473292 0.185651222,2.69816044 0.534265408,2.04630859 C0.882879593,1.39445674 1.39445674,0.882879593 2.04630859,0.534265408 C2.69816044,0.185651222 3.34473292,1.2037061e-16 5.1277704,-2.07168062e-16 Z" id="🎨-Background"></path>
                </g>
                <g id="icons8-plus" transform="translate(123.000000, 10.000000)" fill-rule="nonzero">
                    <path d="M0,10 C0,4.47803305 4.47803305,0 10,0 C15.5219669,0 20,4.47803305 20,10 C20,15.5219669 15.5219669,20 10,20 C4.47803305,20 0,15.5219669 0,10 Z" id="Path" fill="#FFFFFF"></path>
                    <path d="M15.5346297,8.49726133 L11.7773906,8.49726133 L11.7773906,4.76387777 C11.7773906,4.6048412 11.6501614,4.47761194 11.4911248,4.47761194 L8.78352716,4.47761194 C8.62449059,4.47761194 8.49726133,4.6048412 8.49726133,4.76387777 L8.49726133,8.49726133 L4.76387777,8.49726133 C4.6048412,8.49726133 4.47761194,8.62449059 4.47761194,8.78352716 L4.47761194,11.5348599 C4.47761194,11.6938964 4.6048412,11.8211257 4.76387777,11.8211257 L8.49726133,11.8211257 L8.49726133,15.5346297 C8.49726133,15.6936663 8.62449059,15.8208955 8.78352716,15.8208955 L11.4911248,15.8208955 C11.6501614,15.8208955 11.7773906,15.6936663 11.7773906,15.5346297 L11.7773906,11.8211257 L15.5346297,11.8211257 C15.6936663,11.8211257 15.8208955,11.6938964 15.8208955,11.5348599 L15.8208955,8.78352716 C15.8208955,8.62449059 15.6896903,8.49726133 15.5346297,8.49726133 Z" id="Path" fill="#3366FF"></path>
                </g>
            </g>
        </g>
    </g>
</svg>